<svg width="100" height="100" viewBox="0 0 100 100" fill="none" xmlns="http://www.w3.org/2000/svg">
<path d="M37.5 41.6664L51.075 51.8497C51.916 52.4805 52.9644 52.77 54.0099 52.6603C55.0554 52.5506 56.0208 52.0497 56.7125 51.2581L83.3333 20.8331" stroke="#00FF40" stroke-width="2.5" stroke-linecap="round"/>
<path d="M87.5 49.9998C87.5001 57.8353 85.0459 65.474 80.4819 71.8431C75.9179 78.2122 69.4735 82.9918 62.0538 85.5104C54.6341 88.029 46.6119 88.1602 39.1138 85.8855C31.6157 83.6109 25.0184 79.0447 20.2486 72.8282C15.4788 66.6117 12.7761 59.0573 12.52 51.226C12.264 43.3946 14.4674 35.6798 18.8209 29.165C23.1744 22.6502 29.4593 17.6628 36.7928 14.9032C44.1263 12.1435 52.14 11.7504 59.7083 13.7789" stroke="#00FF40" stroke-width="2.5" stroke-linecap="round"/>
</svg>
