<svg width="348" height="40" viewBox="0 0 348 40" fill="none" xmlns="http://www.w3.org/2000/svg">
<path d="M96.031 10.3083C97.1954 13.0025 98.6403 15.5736 100.353 17.9732C101 18.8785 101.649 19.7522 102.277 20.5814C102.294 20.6046 102.312 20.628 102.329 20.6513C103.549 22.2656 103.275 24.5552 101.71 25.8363L97.2323 29.4348L92.1371 21.2857C91.5238 20.3055 91.3109 19.1159 91.5964 17.9949C91.6766 17.679 91.794 17.3702 91.9485 17.0751L96.031 10.3083Z" fill="white"/>
<path d="M92.3 2.6406C92.6292 2.61881 92.9566 2.79372 93.1105 3.11287C94.3534 8.45412 96.617 13.5087 99.803 17.9718C100.449 18.877 101.099 19.7505 101.727 20.5797C101.744 20.603 101.762 20.6264 101.78 20.6497C103 22.264 102.726 24.5533 101.16 25.8345L87.6861 36.6658C86.947 37.271 86.0688 37.5972 85.182 37.6559C83.8344 37.7451 82.4648 37.2176 81.5229 36.1134C80.1478 34.5017 80.1095 32.1408 81.432 30.4852L84.055 27.2012C86.2679 24.4303 86.7324 20.6492 85.2551 17.4252L81.5827 9.69251C81.4034 9.30156 81.5494 8.83882 81.9204 8.62091L91.9318 2.75392C92.0484 2.68561 92.1736 2.64897 92.2994 2.64064M92.1726 0.715519C91.7465 0.74372 91.3265 0.872711 90.9573 1.08921L80.9459 6.9562C79.7156 7.67762 79.2356 9.19884 79.8293 10.4956L79.8346 10.5075L79.8405 10.5194L83.507 18.2395C84.0791 19.4933 84.2927 20.879 84.1248 22.2474C83.9565 23.6198 83.4113 24.9159 82.5483 25.9964L79.9254 29.2804C78.0297 31.6539 78.0846 35.0539 80.0563 37.3648C80.7082 38.1292 81.5423 38.7346 82.4673 39.1155C83.3611 39.4837 84.3443 39.6442 85.3107 39.5802C86.6319 39.4928 87.8737 39.0033 88.9016 38.1644L102.37 27.3373L102.377 27.3323L102.383 27.3268C103.529 26.3899 104.256 25.0643 104.431 23.5949C104.607 22.1254 104.212 20.6659 103.32 19.4856L103.278 19.4297L103.267 19.4144C102.537 18.4508 101.936 17.6359 101.374 16.8494C99.8667 14.7379 98.559 12.4598 97.4882 10.079C96.4227 7.71004 95.5823 5.21857 94.9905 2.67457L94.942 2.46703L94.8493 2.27465C94.3569 1.25155 93.3064 0.63919 92.1732 0.714194L92.1726 0.715519Z" fill="black"/>
<path d="M97.1018 30.1042L91.5869 21.2844C90.9736 20.3041 90.7607 19.1142 91.0462 17.9932C91.1265 17.6772 91.2439 17.3685 91.3984 17.0734L95.7609 9.84527" stroke="black" stroke-width="2.26976" stroke-miterlimit="10" stroke-linecap="round"/>
<path d="M94.4956 19.0603L94.5105 19.0465C94.8043 18.773 95.2685 18.8063 95.5203 19.1188L97.1389 21.1273C97.2683 21.2878 97.5084 21.3002 97.6537 21.1539L103.795 14.9672C104.023 14.7369 104.401 14.7553 104.606 15.0068C104.773 15.2105 104.77 15.5036 104.601 15.7046L97.8339 23.7371C97.5319 24.0956 96.9683 24.0562 96.719 23.6592L94.3809 19.9345C94.2045 19.6534 94.2526 19.2865 94.4956 19.0603Z" fill="black"/>
<path d="M116.252 28.4998V25.6762H120.534C121.758 25.6762 122.793 25.4331 123.64 24.9468C124.503 24.4449 125.154 23.7625 125.593 22.8998C126.048 22.037 126.276 21.0488 126.276 19.9351C126.276 18.837 126.056 17.8723 125.617 17.0409C125.178 16.2096 124.527 15.5586 123.664 15.088C122.817 14.6174 121.774 14.3821 120.534 14.3821H116.323V11.5586H120.534C122.433 11.5586 124.087 11.9037 125.499 12.5939C126.911 13.2684 128.001 14.2409 128.77 15.5115C129.554 16.7664 129.946 18.2566 129.946 19.9821C129.946 21.7076 129.554 23.2135 128.77 24.4998C127.985 25.7703 126.887 26.7586 125.476 27.4645C124.08 28.1547 122.44 28.4998 120.558 28.4998H116.252ZM114.04 28.4998V11.5586H117.664V28.4998H114.04ZM137.003 28.735C135.685 28.735 134.524 28.4762 133.521 27.9586C132.532 27.4252 131.756 26.688 131.191 25.7468C130.642 24.79 130.368 23.6919 130.368 22.4527C130.368 21.2135 130.642 20.1311 131.191 19.2056C131.756 18.2801 132.532 17.5586 133.521 17.0409C134.524 16.5233 135.685 16.2645 137.003 16.2645C138.336 16.2645 139.497 16.5233 140.485 17.0409C141.489 17.5586 142.266 18.2801 142.815 19.2056C143.364 20.1311 143.638 21.2135 143.638 22.4527C143.638 23.6919 143.356 24.79 142.791 25.7468C142.242 26.688 141.466 27.4252 140.462 27.9586C139.473 28.4762 138.321 28.735 137.003 28.735ZM137.003 25.9586C137.552 25.9586 138.046 25.8174 138.485 25.5351C138.94 25.2527 139.301 24.8527 139.568 24.3351C139.834 23.8017 139.968 23.1664 139.968 22.4292C139.968 21.3468 139.677 20.5154 139.097 19.9351C138.532 19.339 137.834 19.0409 137.003 19.0409C136.172 19.0409 135.466 19.339 134.885 19.9351C134.321 20.5311 134.038 21.3625 134.038 22.4292C134.038 23.1664 134.172 23.8017 134.438 24.3351C134.705 24.8527 135.058 25.2527 135.497 25.5351C135.952 25.8174 136.454 25.9586 137.003 25.9586ZM152.121 28.735C150.976 28.735 150.042 28.4684 149.321 27.9351C148.615 27.4017 148.199 26.6723 148.074 25.7468L148.262 25.7233V28.4998H144.803V11.5586H148.333V19.1586L148.121 19.1115C148.293 18.2331 148.748 17.5429 149.486 17.0409C150.239 16.5233 151.18 16.2645 152.309 16.2645C153.391 16.2645 154.325 16.5233 155.109 17.0409C155.909 17.5429 156.521 18.2566 156.944 19.1821C157.384 20.1076 157.603 21.1978 157.603 22.4527C157.603 23.7233 157.376 24.8292 156.921 25.7703C156.466 26.7115 155.831 27.4409 155.015 27.9586C154.199 28.4762 153.235 28.735 152.121 28.735ZM151.133 25.9115C151.964 25.9115 152.639 25.6135 153.156 25.0174C153.674 24.4213 153.933 23.5743 153.933 22.4762C153.933 21.3782 153.666 20.539 153.133 19.9586C152.615 19.3782 151.933 19.088 151.086 19.088C150.27 19.088 149.595 19.386 149.062 19.9821C148.544 20.5625 148.286 21.4017 148.286 22.4998C148.286 23.5978 148.544 24.4449 149.062 25.0409C149.595 25.6213 150.286 25.9115 151.133 25.9115ZM166.19 28.735C165.045 28.735 164.111 28.4684 163.39 27.9351C162.684 27.4017 162.268 26.6723 162.143 25.7468L162.331 25.7233V28.4998H158.872V11.5586H162.402V19.1586L162.19 19.1115C162.362 18.2331 162.817 17.5429 163.555 17.0409C164.307 16.5233 165.249 16.2645 166.378 16.2645C167.46 16.2645 168.394 16.5233 169.178 17.0409C169.978 17.5429 170.59 18.2566 171.013 19.1821C171.453 20.1076 171.672 21.1978 171.672 22.4527C171.672 23.7233 171.445 24.8292 170.99 25.7703C170.535 26.7115 169.9 27.4409 169.084 27.9586C168.268 28.4762 167.304 28.735 166.19 28.735ZM165.202 25.9115C166.033 25.9115 166.707 25.6135 167.225 25.0174C167.743 24.4213 168.002 23.5743 168.002 22.4762C168.002 21.3782 167.735 20.539 167.202 19.9586C166.684 19.3782 166.002 19.088 165.155 19.088C164.339 19.088 163.664 19.386 163.131 19.9821C162.613 20.5625 162.355 21.4017 162.355 22.4998C162.355 23.5978 162.613 24.4449 163.131 25.0409C163.664 25.6213 164.355 25.9115 165.202 25.9115ZM173.231 33.3233L176.549 25.9821L177.161 24.9703L180.266 16.4998H184.031L176.761 33.3233H173.231ZM175.772 28.2645L171.161 16.4998H174.972L178.761 27.2292L175.772 28.2645ZM184.689 28.4998V16.4998H188.148V19.3233H188.219V28.4998H184.689ZM192.76 28.4998V20.8762C192.76 20.2645 192.595 19.8174 192.266 19.5351C191.952 19.237 191.505 19.088 190.925 19.088C190.423 19.088 189.96 19.2056 189.536 19.4409C189.128 19.6605 188.807 19.9821 188.572 20.4056C188.336 20.8135 188.219 21.2998 188.219 21.8645L187.913 19.1586C188.305 18.2801 188.87 17.5821 189.607 17.0645C190.36 16.5311 191.262 16.2645 192.313 16.2645C193.568 16.2645 194.54 16.6174 195.23 17.3233C195.936 18.0292 196.289 18.9154 196.289 19.9821V28.4998H192.76ZM200.83 28.4998V20.8762C200.83 20.2645 200.666 19.8174 200.336 19.5351C200.023 19.237 199.576 19.088 198.995 19.088C198.493 19.088 198.03 19.2056 197.607 19.4409C197.199 19.6605 196.877 19.9821 196.642 20.4056C196.407 20.8135 196.289 21.2998 196.289 21.8645L195.748 19.1586C196.14 18.2801 196.721 17.5821 197.489 17.0645C198.274 16.5311 199.215 16.2645 200.313 16.2645C201.615 16.2645 202.611 16.6331 203.301 17.3703C204.007 18.0919 204.36 19.0409 204.36 20.2174V28.4998H200.83ZM213.595 28.4998C213.501 28.1547 213.43 27.786 213.383 27.3939C213.352 27.0017 213.336 26.5468 213.336 26.0292H213.242V20.3586C213.242 19.8723 213.077 19.4958 212.748 19.2292C212.434 18.9468 211.964 18.8056 211.336 18.8056C210.74 18.8056 210.262 18.9076 209.901 19.1115C209.556 19.3154 209.328 19.6135 209.219 20.0056H205.854C206.011 18.9233 206.568 18.0292 207.525 17.3233C208.481 16.6174 209.791 16.2645 211.454 16.2645C213.179 16.2645 214.497 16.6488 215.407 17.4174C216.317 18.186 216.772 19.2919 216.772 20.7351V26.0292C216.772 26.4213 216.795 26.8213 216.842 27.2292C216.905 27.6213 216.999 28.0449 217.125 28.4998H213.595ZM209.407 28.735C208.215 28.735 207.266 28.437 206.56 27.8409C205.854 27.2292 205.501 26.4213 205.501 25.4174C205.501 24.3037 205.917 23.4096 206.748 22.7351C207.595 22.0449 208.772 21.5978 210.277 21.3939L213.783 20.8998V22.9468L210.866 23.3939C210.238 23.488 209.776 23.6605 209.477 23.9115C209.179 24.1625 209.03 24.5076 209.03 24.9468C209.03 25.339 209.172 25.637 209.454 25.8409C209.736 26.0449 210.113 26.1468 210.583 26.1468C211.321 26.1468 211.948 25.9507 212.466 25.5586C212.983 25.1507 213.242 24.6801 213.242 24.1468L213.572 26.0292C213.227 26.9233 212.701 27.5978 211.995 28.0527C211.289 28.5076 210.427 28.735 209.407 28.735ZM218.778 28.4998V16.4998H222.237V19.3233H222.308V28.4998H218.778ZM222.308 22.2409L222.002 19.3939C222.284 18.3743 222.747 17.5978 223.39 17.0645C224.033 16.5311 224.833 16.2645 225.79 16.2645C226.088 16.2645 226.308 16.2958 226.449 16.3586V19.6527C226.371 19.6213 226.261 19.6056 226.12 19.6056C225.978 19.59 225.806 19.5821 225.602 19.5821C224.473 19.5821 223.641 19.786 223.108 20.1939C222.574 20.586 222.308 21.2684 222.308 22.2409ZM227.448 28.4998V11.5586H230.977V28.4998H227.448ZM235.142 28.4998L230.153 22.2645L235.024 16.4998H239.095L233.377 22.8056L233.542 21.6998L239.33 28.4998H235.142ZM244.912 28.735C243.578 28.735 242.418 28.4762 241.429 27.9586C240.441 27.4252 239.672 26.688 239.123 25.7468C238.59 24.8056 238.323 23.7233 238.323 22.4998C238.323 21.2605 238.59 20.1782 239.123 19.2527C239.672 18.3115 240.433 17.5821 241.406 17.0645C242.378 16.5311 243.508 16.2645 244.794 16.2645C246.033 16.2645 247.108 16.5154 248.018 17.0174C248.927 17.5194 249.633 18.2174 250.135 19.1115C250.637 20.0056 250.888 21.0566 250.888 22.2645C250.888 22.5154 250.88 22.7507 250.865 22.9703C250.849 23.1743 250.825 23.3703 250.794 23.5586H240.394V21.2292H247.947L247.335 21.6527C247.335 20.6801 247.1 19.9664 246.629 19.5115C246.174 19.0409 245.547 18.8056 244.747 18.8056C243.821 18.8056 243.1 19.1194 242.582 19.7468C242.08 20.3743 241.829 21.3154 241.829 22.5703C241.829 23.7939 242.08 24.7037 242.582 25.2998C243.1 25.8958 243.869 26.1939 244.888 26.1939C245.453 26.1939 245.939 26.0998 246.347 25.9115C246.755 25.7233 247.061 25.4174 247.265 24.9939H250.582C250.19 26.1547 249.516 27.0723 248.559 27.7468C247.618 28.4056 246.402 28.735 244.912 28.735ZM257.442 28.7586C255.905 28.7586 254.76 28.39 254.007 27.6527C253.27 26.8998 252.901 25.7625 252.901 24.2409V13.8174L256.43 12.4998V24.3586C256.43 24.8919 256.579 25.2919 256.877 25.5586C257.176 25.8252 257.638 25.9586 258.266 25.9586C258.501 25.9586 258.721 25.9351 258.925 25.888C259.128 25.8409 259.332 25.786 259.536 25.7233V28.4056C259.332 28.5154 259.042 28.6017 258.666 28.6645C258.305 28.7272 257.897 28.7586 257.442 28.7586ZM250.666 19.1821V16.4998H259.536V19.1821H250.666ZM265.655 28.735C263.898 28.735 262.502 28.3821 261.467 27.6762C260.431 26.9703 259.867 25.9978 259.773 24.7586H262.925C263.004 25.2919 263.271 25.6998 263.725 25.9821C264.196 26.2488 264.839 26.3821 265.655 26.3821C266.392 26.3821 266.925 26.2801 267.255 26.0762C267.6 25.8566 267.773 25.5507 267.773 25.1586C267.773 24.8605 267.671 24.6331 267.467 24.4762C267.278 24.3037 266.925 24.1625 266.408 24.0527L264.478 23.6527C263.051 23.3547 262 22.9076 261.325 22.3115C260.651 21.6998 260.314 20.9154 260.314 19.9586C260.314 18.7978 260.761 17.8958 261.655 17.2527C262.549 16.5939 263.796 16.2645 265.396 16.2645C266.98 16.2645 268.243 16.586 269.184 17.2292C270.125 17.8566 270.643 18.7351 270.737 19.8645H267.584C267.522 19.4566 267.302 19.1507 266.925 18.9468C266.549 18.7272 266.016 18.6174 265.325 18.6174C264.698 18.6174 264.227 18.7115 263.914 18.8998C263.616 19.0723 263.467 19.3233 263.467 19.6527C263.467 19.9351 263.592 20.1625 263.843 20.3351C264.094 20.4919 264.51 20.6331 265.09 20.7586L267.255 21.2056C268.463 21.4566 269.373 21.9272 269.984 22.6174C270.612 23.2919 270.925 24.0919 270.925 25.0174C270.925 26.1939 270.463 27.1115 269.537 27.7703C268.627 28.4135 267.333 28.735 265.655 28.735Z" fill="black"/>
</svg>
