<svg width="30" height="30" viewBox="0 0 30 30" fill="none" xmlns="http://www.w3.org/2000/svg">
<path d="M6.4125 23.9998C9.28375 23.9998 11.4412 21.5998 12.7287 19.7048C12.5752 20.1014 12.4927 20.522 12.485 20.9473C12.485 22.0535 13.1475 22.8423 14.4525 22.8423C16.2438 22.8423 18.1587 21.3323 19.15 19.7048C19.0865 19.9175 19.0516 20.1378 19.0463 20.3598C19.0463 21.131 19.4987 21.6173 20.4212 21.6173C23.3262 21.6173 26.25 16.6685 26.25 12.341C26.25 8.96851 24.475 5.99976 20.02 5.99976C12.19 5.99976 3.75 15.1923 3.75 21.131C3.75 23.4635 5.055 23.9998 6.4125 23.9998ZM17.3238 11.9723C17.3238 11.1335 17.8113 10.546 18.5238 10.546C19.22 10.546 19.7075 11.1335 19.7075 11.971C19.7075 12.811 19.22 13.4148 18.5238 13.4148C17.8113 13.4148 17.3238 12.811 17.3238 11.9723ZM21.0475 11.9723C21.0475 11.1335 21.535 10.546 22.2475 10.546C22.9438 10.546 23.4313 11.1335 23.4313 11.971C23.4313 12.811 22.9438 13.4148 22.2475 13.4148C21.535 13.4148 21.0475 12.811 21.0475 11.9723Z" fill="#AB9FF2"/>
</svg>
